<svg width="410" height="615" viewBox="0 0 410 615" fill="none" xmlns="http://www.w3.org/2000/svg">
<path d="M309.07 303.132L309.163 302.553H308.577H308.543H308.043V303.053V303.216C307.459 306.615 306.109 309.85 304.087 312.687C302.017 315.591 299.296 318.004 296.128 319.744L296.116 319.751L296.103 319.759C289.645 323.81 283.995 325.838 278.234 327.879C274.072 329.275 269.833 330.672 265.514 332.095C257.109 334.865 248.402 337.735 239.375 340.89C233.877 342.712 228.605 344.531 223.547 346.276C215.323 349.114 207.667 351.755 200.533 353.895L200.526 353.898L200.519 353.9C195.806 355.466 191.165 356.962 186.596 358.435C177.247 361.449 168.204 364.365 159.473 367.575L159.464 367.579L159.454 367.583C149.643 371.661 140.428 376.977 132.045 383.393L132.031 383.404L132.019 383.415C124.221 390.278 117.415 398.135 111.788 406.773L111.783 406.781L111.779 406.788C105.964 416.424 102.314 428.834 102.314 443.281C102.314 472.105 109.517 494.136 124.065 507.939C138.595 522.483 165.431 529.295 204.949 529.295C245.257 529.295 272.774 521.788 287.371 506.576L287.372 506.575C301.829 491.402 309.043 470.083 309.043 442.655V303.3C309.052 303.244 309.061 303.188 309.07 303.132ZM360.042 40.0825L360.047 40.0864C393.029 66.0196 409.5 99.3452 409.5 138.844V476.814C409.5 490.418 406.665 505.42 401.655 521.797C396.6 538.165 386.622 553.108 370.847 566.693L370.837 566.702C355.812 580.379 335.024 591.977 308.452 600.855C281.901 609.727 247.439 614.5 205.017 614.5C162.663 614.5 128.133 609.727 101.616 600.855C75.0775 591.977 54.256 580.379 39.2309 566.702L39.2236 566.695C25.2518 554.464 14.6682 539.021 8.44292 521.784C3.36739 505.445 0.5 490.447 0.5 476.847V422.825C0.5 394.163 8.37348 367.58 24.1502 344.378L24.1536 344.373C39.9209 320.561 62.104 304.22 90.802 293.973C97.728 291.673 105.159 289.371 113.097 286.913L113.978 286.64C122.247 284.079 131.059 281.344 140.406 278.262L140.407 278.262C147.692 275.852 154.745 273.449 161.661 271.092C172.534 267.388 183.069 263.798 193.638 260.477L193.639 260.476C210.945 254.971 226.043 249.467 238.965 244.657L238.972 244.654C246.756 241.629 254.663 238.908 262.672 236.498L262.708 236.487L262.742 236.471L275.696 230.311L275.707 230.305L275.718 230.3C280.867 227.531 285.895 223.373 290.972 217.879L290.605 217.539L290.972 217.879C296.022 212.409 300.353 206.214 304 199.327L304.002 199.322C307.873 191.832 309.867 183.558 309.823 175.175V153.276C309.876 145.181 308.129 137.172 304.7 129.796C301.812 121.462 295.985 113.89 288.049 107.041C280.08 100.131 269.196 94.6357 256.238 90.4728L256.234 90.4716C243.215 86.3995 225.934 84.3219 206.441 84.3219C166.131 84.3219 139.32 91.8955 124.791 107.74L124.787 107.745C112.504 121.533 105.273 138.734 103.841 157.979L103.84 157.997V158.016C103.84 161.775 100.559 164.367 96.4048 164.367L96.3969 164.368L8.67871 165.751C8.67786 165.751 8.67701 165.751 8.67616 165.751C6.72057 165.759 4.84366 165.016 3.45314 163.688C2.0633 162.361 1.27187 160.558 1.24601 158.671V138.91C1.24601 119.772 4.86101 102.057 12.7291 85.0317C20.6239 67.9892 32.8066 53.7225 49.2643 41.4118C65.753 29.169 87.2929 18.9494 113.115 12.1114L113.128 12.1077L113.142 12.1033C138.258 3.89387 169.113 0.502132 205.017 0.500001C275.489 0.504176 327.118 13.5116 360.042 40.0825Z" stroke="#0A3871" stroke-opacity="0.1"/>
</svg>
